<svg width="24" height="24" viewBox="0 0 24 24" fill="none" xmlns="http://www.w3.org/2000/svg">
<path fill-rule="evenodd" clip-rule="evenodd" d="M12 21C9.23857 21 7 18.7614 7 16L7 7.5C7 5.84315 8.34314 4.5 10 4.5C11.6569 4.5 13 5.84314 13 7.5L13 16C13 16.5523 12.5523 17 12 17C11.4477 17 11 16.5523 11 16L11 8C11 7.44771 10.5523 7 10 7C9.44772 7 9 7.44771 9 8L9 16C9 17.6569 10.3431 19 12 19C13.6569 19 15 17.6569 15 16L15 7.5C15 4.73858 12.7614 2.5 10 2.5C7.23857 2.5 5 4.73858 5 7.5L5 16C5 19.866 8.13401 23 12 23C15.866 23 19 19.866 19 16L19 13.5C19 12.9477 18.5523 12.5 18 12.5C17.4477 12.5 17 12.9477 17 13.5L17 16C17 18.7614 14.7614 21 12 21Z" fill="black"/>
</svg>
