<svg width="24" height="24" viewBox="0 0 24 24" fill="none" xmlns="http://www.w3.org/2000/svg">
<path fill-rule="evenodd" clip-rule="evenodd" d="M10.3757 21.8688C10.9044 21.9551 11.4469 22 12 22C12.5662 22 13.1215 21.9529 13.6621 21.8625C17.9897 21.1385 21.3758 17.6351 21.9226 13.25C21.9737 12.8405 22 12.4233 22 12C22 11.5767 21.9737 11.1595 21.9226 10.75C21.372 6.33438 17.9425 2.81281 13.5717 2.1228C13.0597 2.04197 12.5347 2 12 2C11.454 2 10.9182 2.04376 10.396 2.12796C6.04057 2.83019 2.62663 6.34527 2.07737 10.75C2.0263 11.1595 2 11.5767 2 12C2 12.4233 2.0263 12.8405 2.07737 13.25C2.62578 17.6479 6.03 21.1589 10.3757 21.8688ZM4.6037 13.25C5.00907 15.6662 6.56974 17.6907 8.69829 18.736C7.93071 16.8719 7.55536 15.022 7.4595 13.25H4.6037ZM9.97182 13.25C10.1039 15.2656 10.6576 17.3907 11.8513 19.4986C11.9007 19.4995 11.9503 19.5 12 19.5C12.0618 19.5 12.1235 19.4992 12.185 19.4978C13.0547 17.9289 13.8412 15.7717 14.0221 13.25H9.97182ZM13.995 10.75H10.0151C10.2555 8.30672 11.04 6.13371 11.9043 4.5006C11.9361 4.5002 11.9681 4.5 12 4.5C12.0202 4.5 12.0403 4.50008 12.0604 4.50024C13.2313 6.67948 13.8117 8.79034 13.995 10.75ZM16.5296 13.25C16.3997 15.3007 15.9225 17.1597 15.2956 18.739C17.4273 17.6946 18.9905 15.6686 19.3963 13.25H16.5296ZM19.3963 10.75H16.51C16.3702 8.98516 15.9539 7.11812 15.1576 5.19513C17.3597 6.21865 18.9818 8.27956 19.3963 10.75ZM8.84172 5.19543C8.19694 6.80887 7.68257 8.6988 7.50297 10.75H4.6037C5.01812 8.27981 6.64002 6.21906 8.84172 5.19543Z" fill="#1E1E1E"/>
</svg>
