<svg width="24" height="24" viewBox="0 0 24 24" fill="none" xmlns="http://www.w3.org/2000/svg">
<path fill-rule="evenodd" clip-rule="evenodd" d="M21.5 12C21.5 17.2467 17.2467 21.5 12 21.5C11.9121 21.5 11.8246 21.4988 11.7373 21.4964L4.48874 21.4556C3.38858 21.4494 2.5 20.5558 2.5 19.4556V4.50146C2.5 3.39689 3.39543 2.50146 4.5 2.50146H11.8318C11.8877 2.50049 11.9438 2.5 12 2.5C17.2467 2.5 21.5 6.75329 21.5 12ZM12.2479 5.86821L12 5.1795L11.4147 6.50971C10.3595 8.90786 8.39722 10.7903 5.95734 11.7451L5.09828 12.0812L5.95733 12.4174C8.39722 13.3721 10.3595 15.2546 11.4147 17.6527L12 18.9829L12.2479 18.2942C13.248 15.5163 15.435 13.3292 18.213 12.3291L18.9017 12.0812L18.213 11.8333C15.435 10.8332 13.248 8.64615 12.2479 5.86821Z" fill="#1E1E1E"/>
</svg>
